<mxfile host="Electron" agent="Mozilla/5.0 (Windows NT 10.0; Win64; x64) AppleWebKit/537.36 (KHTML, like Gecko) draw.io/24.7.17 Chrome/128.0.6613.36 Electron/32.0.1 Safari/537.36" version="24.7.17">
  <diagram name="PÃ¡gina-1" id="l5-2WjpOpy68vFKM0kMX">
    <mxGraphModel dx="1687" dy="1005" grid="1" gridSize="10" guides="1" tooltips="1" connect="1" arrows="1" fold="1" page="1" pageScale="1" pageWidth="827" pageHeight="1169" math="0" shadow="0">
      <root>
        <mxCell id="0" />
        <mxCell id="1" parent="0" />
        <mxCell id="67oxSKLGULwAjZnppjaI-6" value="" style="ellipse;whiteSpace=wrap;html=1;" vertex="1" parent="1">
          <mxGeometry x="141.25" y="490.5" width="112.5" height="73" as="geometry" />
        </mxCell>
        <mxCell id="67oxSKLGULwAjZnppjaI-1" value="Biblioteca" style="rounded=0;whiteSpace=wrap;html=1;" vertex="1" parent="1">
          <mxGeometry x="80" y="410" width="120" height="60" as="geometry" />
        </mxCell>
        <mxCell id="67oxSKLGULwAjZnppjaI-2" value="&lt;u&gt;Cod_Biblioteca&lt;/u&gt;" style="ellipse;whiteSpace=wrap;html=1;" vertex="1" parent="1">
          <mxGeometry x="20" y="330" width="95" height="54" as="geometry" />
        </mxCell>
        <mxCell id="67oxSKLGULwAjZnppjaI-3" value="Nombre" style="ellipse;whiteSpace=wrap;html=1;" vertex="1" parent="1">
          <mxGeometry x="150" y="330" width="95" height="54" as="geometry" />
        </mxCell>
        <mxCell id="67oxSKLGULwAjZnppjaI-4" value="Direccion&lt;span style=&quot;color: rgba(0, 0, 0, 0); font-family: monospace; font-size: 0px; text-align: start; text-wrap: nowrap;&quot;&gt;%3CmxGraphModel%3E%3Croot%3E%3CmxCell%20id%3D%220%22%2F%3E%3CmxCell%20id%3D%221%22%20parent%3D%220%22%2F%3E%3CmxCell%20id%3D%222%22%20value%3D%22Nombre%22%20style%3D%22ellipse%3BwhiteSpace%3Dwrap%3Bhtml%3D1%3B%22%20vertex%3D%221%22%20parent%3D%221%22%3E%3CmxGeometry%20x%3D%22150%22%20y%3D%22330%22%20width%3D%2295%22%20height%3D%2254%22%20as%3D%22geometry%22%2F%3E%3C%2FmxCell%3E%3C%2Froot%3E%3C%2FmxGraphModel%3E&lt;/span&gt;" style="ellipse;whiteSpace=wrap;html=1;" vertex="1" parent="1">
          <mxGeometry x="20" y="500" width="95" height="54" as="geometry" />
        </mxCell>
        <mxCell id="67oxSKLGULwAjZnppjaI-5" value="Telefono" style="ellipse;whiteSpace=wrap;html=1;" vertex="1" parent="1">
          <mxGeometry x="150" y="500" width="95" height="54" as="geometry" />
        </mxCell>
        <mxCell id="67oxSKLGULwAjZnppjaI-7" value="" style="endArrow=none;html=1;rounded=0;entryX=0.5;entryY=1;entryDx=0;entryDy=0;exitX=0.25;exitY=0;exitDx=0;exitDy=0;" edge="1" parent="1" source="67oxSKLGULwAjZnppjaI-1" target="67oxSKLGULwAjZnppjaI-2">
          <mxGeometry width="50" height="50" relative="1" as="geometry">
            <mxPoint x="390" y="460" as="sourcePoint" />
            <mxPoint x="440" y="410" as="targetPoint" />
          </mxGeometry>
        </mxCell>
        <mxCell id="67oxSKLGULwAjZnppjaI-8" value="" style="endArrow=none;html=1;rounded=0;entryX=0.5;entryY=1;entryDx=0;entryDy=0;exitX=0.75;exitY=0;exitDx=0;exitDy=0;" edge="1" parent="1" source="67oxSKLGULwAjZnppjaI-1" target="67oxSKLGULwAjZnppjaI-3">
          <mxGeometry width="50" height="50" relative="1" as="geometry">
            <mxPoint x="390" y="460" as="sourcePoint" />
            <mxPoint x="440" y="410" as="targetPoint" />
          </mxGeometry>
        </mxCell>
        <mxCell id="67oxSKLGULwAjZnppjaI-9" value="" style="endArrow=none;html=1;rounded=0;entryX=0.5;entryY=0;entryDx=0;entryDy=0;exitX=0.25;exitY=1;exitDx=0;exitDy=0;" edge="1" parent="1" source="67oxSKLGULwAjZnppjaI-1" target="67oxSKLGULwAjZnppjaI-4">
          <mxGeometry width="50" height="50" relative="1" as="geometry">
            <mxPoint x="390" y="460" as="sourcePoint" />
            <mxPoint x="440" y="410" as="targetPoint" />
          </mxGeometry>
        </mxCell>
        <mxCell id="67oxSKLGULwAjZnppjaI-10" value="" style="endArrow=none;html=1;rounded=0;entryX=0.75;entryY=1;entryDx=0;entryDy=0;exitX=0.5;exitY=0;exitDx=0;exitDy=0;" edge="1" parent="1" source="67oxSKLGULwAjZnppjaI-6" target="67oxSKLGULwAjZnppjaI-1">
          <mxGeometry width="50" height="50" relative="1" as="geometry">
            <mxPoint x="390" y="460" as="sourcePoint" />
            <mxPoint x="440" y="410" as="targetPoint" />
          </mxGeometry>
        </mxCell>
        <mxCell id="67oxSKLGULwAjZnppjaI-11" value="Libros&lt;div&gt;X&lt;/div&gt;&lt;div&gt;Biblioteca&lt;/div&gt;" style="rhombus;whiteSpace=wrap;html=1;" vertex="1" parent="1">
          <mxGeometry x="390" y="410" width="100" height="60" as="geometry" />
        </mxCell>
        <mxCell id="67oxSKLGULwAjZnppjaI-12" value="" style="endArrow=none;html=1;rounded=0;entryX=1;entryY=0.5;entryDx=0;entryDy=0;exitX=0;exitY=0.5;exitDx=0;exitDy=0;" edge="1" parent="1" source="67oxSKLGULwAjZnppjaI-11" target="67oxSKLGULwAjZnppjaI-1">
          <mxGeometry width="50" height="50" relative="1" as="geometry">
            <mxPoint x="390" y="460" as="sourcePoint" />
            <mxPoint x="440" y="410" as="targetPoint" />
          </mxGeometry>
        </mxCell>
        <mxCell id="67oxSKLGULwAjZnppjaI-13" value="" style="endArrow=none;html=1;rounded=0;entryX=1;entryY=0.5;entryDx=0;entryDy=0;exitX=0;exitY=0.5;exitDx=0;exitDy=0;" edge="1" parent="1" source="67oxSKLGULwAjZnppjaI-14">
          <mxGeometry width="50" height="50" relative="1" as="geometry">
            <mxPoint x="591" y="480" as="sourcePoint" />
            <mxPoint x="481" y="440" as="targetPoint" />
          </mxGeometry>
        </mxCell>
        <mxCell id="67oxSKLGULwAjZnppjaI-14" value="Libros" style="rounded=0;whiteSpace=wrap;html=1;" vertex="1" parent="1">
          <mxGeometry x="621" y="410" width="120" height="60" as="geometry" />
        </mxCell>
        <mxCell id="67oxSKLGULwAjZnppjaI-16" value="&lt;u&gt;Codigo&lt;/u&gt;" style="ellipse;whiteSpace=wrap;html=1;" vertex="1" parent="1">
          <mxGeometry x="571" y="330" width="95" height="54" as="geometry" />
        </mxCell>
        <mxCell id="67oxSKLGULwAjZnppjaI-17" value="" style="endArrow=none;html=1;rounded=0;entryX=0.5;entryY=1;entryDx=0;entryDy=0;exitX=0.25;exitY=0;exitDx=0;exitDy=0;" edge="1" parent="1" source="67oxSKLGULwAjZnppjaI-14" target="67oxSKLGULwAjZnppjaI-16">
          <mxGeometry width="50" height="50" relative="1" as="geometry">
            <mxPoint x="381" y="460" as="sourcePoint" />
            <mxPoint x="431" y="410" as="targetPoint" />
          </mxGeometry>
        </mxCell>
        <mxCell id="67oxSKLGULwAjZnppjaI-19" value="Titulo" style="ellipse;whiteSpace=wrap;html=1;" vertex="1" parent="1">
          <mxGeometry x="701" y="330" width="95" height="54" as="geometry" />
        </mxCell>
        <mxCell id="67oxSKLGULwAjZnppjaI-20" value="Genero" style="ellipse;whiteSpace=wrap;html=1;" vertex="1" parent="1">
          <mxGeometry x="521" y="480" width="95" height="54" as="geometry" />
        </mxCell>
        <mxCell id="67oxSKLGULwAjZnppjaI-21" value="" style="endArrow=none;html=1;rounded=0;entryX=0.5;entryY=1;entryDx=0;entryDy=0;exitX=0.75;exitY=0;exitDx=0;exitDy=0;" edge="1" parent="1" source="67oxSKLGULwAjZnppjaI-14" target="67oxSKLGULwAjZnppjaI-19">
          <mxGeometry width="50" height="50" relative="1" as="geometry">
            <mxPoint x="381" y="460" as="sourcePoint" />
            <mxPoint x="431" y="410" as="targetPoint" />
          </mxGeometry>
        </mxCell>
        <mxCell id="67oxSKLGULwAjZnppjaI-22" value="" style="endArrow=none;html=1;rounded=0;entryX=0.25;entryY=1;entryDx=0;entryDy=0;exitX=1;exitY=0;exitDx=0;exitDy=0;" edge="1" parent="1" source="67oxSKLGULwAjZnppjaI-20" target="67oxSKLGULwAjZnppjaI-14">
          <mxGeometry width="50" height="50" relative="1" as="geometry">
            <mxPoint x="381" y="460" as="sourcePoint" />
            <mxPoint x="431" y="410" as="targetPoint" />
          </mxGeometry>
        </mxCell>
        <mxCell id="67oxSKLGULwAjZnppjaI-23" value="" style="endArrow=none;html=1;rounded=0;entryX=0.5;entryY=1;entryDx=0;entryDy=0;exitX=0.5;exitY=0;exitDx=0;exitDy=0;" edge="1" parent="1" source="67oxSKLGULwAjZnppjaI-52" target="67oxSKLGULwAjZnppjaI-14">
          <mxGeometry width="50" height="50" relative="1" as="geometry">
            <mxPoint x="730" y="490" as="sourcePoint" />
            <mxPoint x="431" y="410" as="targetPoint" />
          </mxGeometry>
        </mxCell>
        <mxCell id="67oxSKLGULwAjZnppjaI-24" value="Academicos" style="rounded=0;whiteSpace=wrap;html=1;" vertex="1" parent="1">
          <mxGeometry x="621" y="585" width="120" height="60" as="geometry" />
        </mxCell>
        <mxCell id="67oxSKLGULwAjZnppjaI-25" value="" style="endArrow=none;html=1;rounded=0;entryX=0;entryY=0.5;entryDx=0;entryDy=0;exitX=1;exitY=0.5;exitDx=0;exitDy=0;" edge="1" parent="1" source="67oxSKLGULwAjZnppjaI-26" target="67oxSKLGULwAjZnppjaI-24">
          <mxGeometry width="50" height="50" relative="1" as="geometry">
            <mxPoint x="541" y="630" as="sourcePoint" />
            <mxPoint x="431" y="410" as="targetPoint" />
          </mxGeometry>
        </mxCell>
        <mxCell id="67oxSKLGULwAjZnppjaI-26" value="Materia" style="ellipse;whiteSpace=wrap;html=1;" vertex="1" parent="1">
          <mxGeometry x="451" y="588" width="95" height="54" as="geometry" />
        </mxCell>
        <mxCell id="67oxSKLGULwAjZnppjaI-27" value="Editorial" style="rounded=0;whiteSpace=wrap;html=1;" vertex="1" parent="1">
          <mxGeometry x="510" y="860" width="120" height="60" as="geometry" />
        </mxCell>
        <mxCell id="67oxSKLGULwAjZnppjaI-28" value="" style="endArrow=none;html=1;rounded=0;exitX=0.5;exitY=0;exitDx=0;exitDy=0;entryX=1;entryY=0.5;entryDx=0;entryDy=0;" edge="1" parent="1" source="67oxSKLGULwAjZnppjaI-27" target="67oxSKLGULwAjZnppjaI-30">
          <mxGeometry width="50" height="50" relative="1" as="geometry">
            <mxPoint x="366" y="575" as="sourcePoint" />
            <mxPoint x="666" y="760" as="targetPoint" />
            <Array as="points">
              <mxPoint x="570" y="800" />
              <mxPoint x="681" y="800" />
            </Array>
          </mxGeometry>
        </mxCell>
        <mxCell id="67oxSKLGULwAjZnppjaI-29" value="" style="endArrow=none;html=1;rounded=0;entryX=0.5;entryY=1;entryDx=0;entryDy=0;exitX=0;exitY=0.5;exitDx=0;exitDy=0;" edge="1" parent="1" source="67oxSKLGULwAjZnppjaI-30" target="67oxSKLGULwAjZnppjaI-24">
          <mxGeometry width="50" height="50" relative="1" as="geometry">
            <mxPoint x="681" y="700" as="sourcePoint" />
            <mxPoint x="431" y="650" as="targetPoint" />
          </mxGeometry>
        </mxCell>
        <mxCell id="67oxSKLGULwAjZnppjaI-30" value="" style="triangle;whiteSpace=wrap;html=1;rotation=90;" vertex="1" parent="1">
          <mxGeometry x="651" y="680" width="60" height="80" as="geometry" />
        </mxCell>
        <mxCell id="67oxSKLGULwAjZnppjaI-33" value="" style="endArrow=none;html=1;rounded=0;exitX=1;exitY=0.5;exitDx=0;exitDy=0;entryX=0.5;entryY=0;entryDx=0;entryDy=0;" edge="1" parent="1" source="67oxSKLGULwAjZnppjaI-30" target="67oxSKLGULwAjZnppjaI-35">
          <mxGeometry width="50" height="50" relative="1" as="geometry">
            <mxPoint x="681" y="800" as="sourcePoint" />
            <mxPoint x="791" y="860" as="targetPoint" />
            <Array as="points">
              <mxPoint x="681" y="800" />
              <mxPoint x="791" y="800" />
            </Array>
          </mxGeometry>
        </mxCell>
        <mxCell id="67oxSKLGULwAjZnppjaI-35" value="Texto" style="rounded=0;whiteSpace=wrap;html=1;" vertex="1" parent="1">
          <mxGeometry x="730" y="860" width="120" height="60" as="geometry" />
        </mxCell>
        <mxCell id="67oxSKLGULwAjZnppjaI-36" value="Nombre" style="ellipse;whiteSpace=wrap;html=1;" vertex="1" parent="1">
          <mxGeometry x="380" y="840" width="95" height="54" as="geometry" />
        </mxCell>
        <mxCell id="67oxSKLGULwAjZnppjaI-37" value="" style="endArrow=none;html=1;rounded=0;entryX=1;entryY=1;entryDx=0;entryDy=0;exitX=0;exitY=0.75;exitDx=0;exitDy=0;" edge="1" parent="1" source="67oxSKLGULwAjZnppjaI-27" target="67oxSKLGULwAjZnppjaI-36">
          <mxGeometry width="50" height="50" relative="1" as="geometry">
            <mxPoint x="530" y="780" as="sourcePoint" />
            <mxPoint x="580" y="730" as="targetPoint" />
          </mxGeometry>
        </mxCell>
        <mxCell id="67oxSKLGULwAjZnppjaI-44" value="" style="endArrow=none;html=1;rounded=0;exitX=0.5;exitY=0;exitDx=0;exitDy=0;entryX=1;entryY=0.5;entryDx=0;entryDy=0;" edge="1" parent="1" target="67oxSKLGULwAjZnppjaI-46" source="67oxSKLGULwAjZnppjaI-48">
          <mxGeometry width="50" height="50" relative="1" as="geometry">
            <mxPoint x="459.5" y="1130" as="sourcePoint" />
            <mxPoint x="555.5" y="1030" as="targetPoint" />
            <Array as="points">
              <mxPoint x="459.5" y="1070" />
              <mxPoint x="570.5" y="1070" />
            </Array>
          </mxGeometry>
        </mxCell>
        <mxCell id="67oxSKLGULwAjZnppjaI-45" value="" style="endArrow=none;html=1;rounded=0;entryX=0.5;entryY=1;entryDx=0;entryDy=0;exitX=0;exitY=0.5;exitDx=0;exitDy=0;" edge="1" parent="1" source="67oxSKLGULwAjZnppjaI-46" target="67oxSKLGULwAjZnppjaI-27">
          <mxGeometry width="50" height="50" relative="1" as="geometry">
            <mxPoint x="562" y="985" as="sourcePoint" />
            <mxPoint x="562" y="930" as="targetPoint" />
          </mxGeometry>
        </mxCell>
        <mxCell id="67oxSKLGULwAjZnppjaI-46" value="" style="triangle;whiteSpace=wrap;html=1;rotation=90;" vertex="1" parent="1">
          <mxGeometry x="540.5" y="950" width="60" height="80" as="geometry" />
        </mxCell>
        <mxCell id="67oxSKLGULwAjZnppjaI-47" value="" style="endArrow=none;html=1;rounded=0;exitX=1;exitY=0.5;exitDx=0;exitDy=0;entryX=0.5;entryY=0;entryDx=0;entryDy=0;" edge="1" parent="1" source="67oxSKLGULwAjZnppjaI-46" target="67oxSKLGULwAjZnppjaI-49">
          <mxGeometry width="50" height="50" relative="1" as="geometry">
            <mxPoint x="570.5" y="1070" as="sourcePoint" />
            <mxPoint x="679.5" y="1130" as="targetPoint" />
            <Array as="points">
              <mxPoint x="570.5" y="1070" />
              <mxPoint x="680.5" y="1070" />
            </Array>
          </mxGeometry>
        </mxCell>
        <mxCell id="67oxSKLGULwAjZnppjaI-48" value="Propia" style="rounded=0;whiteSpace=wrap;html=1;" vertex="1" parent="1">
          <mxGeometry x="401" y="1130" width="120" height="60" as="geometry" />
        </mxCell>
        <mxCell id="67oxSKLGULwAjZnppjaI-49" value="Generica" style="rounded=0;whiteSpace=wrap;html=1;" vertex="1" parent="1">
          <mxGeometry x="621" y="1130" width="120" height="60" as="geometry" />
        </mxCell>
        <mxCell id="67oxSKLGULwAjZnppjaI-50" value="(N;N)" style="text;strokeColor=none;align=center;fillColor=none;html=1;verticalAlign=middle;whiteSpace=wrap;rounded=0;" vertex="1" parent="1">
          <mxGeometry x="410" y="370" width="60" height="30" as="geometry" />
        </mxCell>
        <mxCell id="67oxSKLGULwAjZnppjaI-52" value="Academicos&lt;div&gt;X&lt;/div&gt;&lt;div&gt;Libros&lt;/div&gt;" style="rhombus;whiteSpace=wrap;html=1;" vertex="1" parent="1">
          <mxGeometry x="631" y="497" width="100" height="60" as="geometry" />
        </mxCell>
        <mxCell id="67oxSKLGULwAjZnppjaI-53" value="" style="endArrow=none;html=1;rounded=0;entryX=0.5;entryY=1;entryDx=0;entryDy=0;exitX=0.5;exitY=0;exitDx=0;exitDy=0;" edge="1" parent="1" source="67oxSKLGULwAjZnppjaI-24" target="67oxSKLGULwAjZnppjaI-52">
          <mxGeometry width="50" height="50" relative="1" as="geometry">
            <mxPoint x="430" y="690" as="sourcePoint" />
            <mxPoint x="480" y="640" as="targetPoint" />
          </mxGeometry>
        </mxCell>
        <mxCell id="67oxSKLGULwAjZnppjaI-54" value="(1;N)" style="text;strokeColor=none;align=center;fillColor=none;html=1;verticalAlign=middle;whiteSpace=wrap;rounded=0;" vertex="1" parent="1">
          <mxGeometry x="730" y="512" width="60" height="30" as="geometry" />
        </mxCell>
      </root>
    </mxGraphModel>
  </diagram>
</mxfile>
